<svg width="24" height="24" viewBox="0 0 24 24" fill="none" xmlns="http://www.w3.org/2000/svg">
<g clip-path="url(#clip0_3_47)">
<path d="M4 4C3.46957 4 2.96086 4.21071 2.58579 4.58579C2.21071 4.96086 2 5.46957 2 6C2 6.53043 2.21071 7.03914 2.58579 7.41421C2.96086 7.78929 3.46957 8 4 8C4.53043 8 5.03914 7.78929 5.41421 7.41421C5.78929 7.03914 6 6.53043 6 6C6 5.46957 5.78929 4.96086 5.41421 4.58579C5.03914 4.21071 4.53043 4 4 4ZM4 10C3.46957 10 2.96086 10.2107 2.58579 10.5858C2.21071 10.9609 2 11.4696 2 12C2 12.5304 2.21071 13.0391 2.58579 13.4142C2.96086 13.7893 3.46957 14 4 14C4.53043 14 5.03914 13.7893 5.41421 13.4142C5.78929 13.0391 6 12.5304 6 12C6 11.4696 5.78929 10.9609 5.41421 10.5858C5.03914 10.2107 4.53043 10 4 10ZM4 16C3.46957 16 2.96086 16.2107 2.58579 16.5858C2.21071 16.9609 2 17.4696 2 18C2 18.5304 2.21071 19.0391 2.58579 19.4142C2.96086 19.7893 3.46957 20 4 20C4.53043 20 5.03914 19.7893 5.41421 19.4142C5.78929 19.0391 6 18.5304 6 18C6 17.4696 5.78929 16.9609 5.41421 16.5858C5.03914 16.2107 4.53043 16 4 16ZM8 19H22V17H8V19ZM8 13H22V11H8V13ZM8 5V7H22V5H8Z" fill="#CBD5E1"/>
</g>
<defs>
<clipPath id="clip0_3_47">
<rect width="24" height="24" fill="white"/>
</clipPath>
</defs>
</svg>
