<svg width="24" height="24" viewBox="0 0 24 24" fill="none" xmlns="http://www.w3.org/2000/svg">
<g clip-path="url(#clip0_3_30)">
<path d="M12.73 14.0008L13.01 14.1408C13.27 14.2908 13.46 14.4408 13.58 14.5808C13.7 14.7208 13.76 14.8808 13.76 15.0808C13.76 15.3808 13.61 15.6408 13.32 15.8308C13.02 16.0308 12.56 16.1308 11.93 16.1308C10.227 16.0518 8.55424 15.6514 7 14.9508V18.3208C8.52244 18.9882 10.1801 19.2896 11.84 19.2008C13.1 19.2008 14.19 19.0108 15.12 18.6408C16.05 18.2708 16.76 17.7408 17.26 17.0708C17.76 16.4008 18 15.6208 18 14.7508C18 14.4908 17.98 14.2408 17.94 14.0008H12.73ZM7.23 10.0008C7.15 9.66078 7.11 9.30078 7.11 8.90078C7.11 7.61078 7.63 6.60078 8.69 5.88078C9.74 5.16078 11.19 4.80078 13.03 4.80078C14.65 4.80078 16.31 5.14078 18 5.80078L16.7 8.73078C15.23 8.13078 13.97 7.83078 12.9 7.83078C12.35 7.83078 11.94 7.91078 11.7 8.09078C11.44 8.26078 11.32 8.47078 11.32 8.73078C11.32 9.00078 11.48 9.25078 11.8 9.47078C11.97 9.59078 12.33 9.77078 12.85 10.0008H7.23ZM3 13.0008H21V11.0008H3V13.0008Z" fill="#334155"/>
</g>
<defs>
<clipPath id="clip0_3_30">
<rect width="24" height="24" fill="white"/>
</clipPath>
</defs>
</svg>
