<svg width="481" height="283" viewBox="0 0 481 283" fill="none" xmlns="http://www.w3.org/2000/svg">
<path d="M452.698 57.4599C424.668 18.3998 359.218 -9.22015 312.488 6.72985C307.538 8.41985 298.158 14.9899 298.158 20.6099V49.8599C310.488 39.4398 332.408 37.2299 332.408 37.2299C382.348 33.8399 427.038 61.7199 441.138 110.32C468.508 204.64 376.168 281.06 289.068 232.17C267.518 220.07 234.838 191.28 216.088 169.57C204.168 156.87 187.598 138.93 176.488 125.87L169.238 117.96H202.158C201.948 116.43 199.218 98.3099 186.968 84.7199H118.798C115.418 84.7199 107.218 94.7499 107.218 98.3199V163.98C119.298 175.43 135.458 178.97 140.138 179.79V141.24C140.428 141.17 140.668 141.15 140.878 141.16L150.948 150.65C161.918 162.69 175.018 175.83 185.338 186.47V186.31C224.488 225.95 266.168 273.33 324.998 280.86C449.028 296.72 523.248 155.77 452.698 57.4599Z" fill="#064771"/>
<path d="M299.488 64.0399C298.638 63.8899 298.168 63.8299 298.168 63.8299V98.6699C287.638 88.0099 276.918 76.7899 265.728 65.9299C235.338 36.4499 198.138 6.71986 155.208 1.21986C31.2575 -14.6301 -43.4225 126.96 27.5075 224.62C55.4175 263.04 122.478 292.46 168.478 275.11C173.138 273.35 182.038 266.78 182.038 261.48V234.82C169.148 226.58 156.268 216.2 147.788 208.99V244.86C97.8875 248.29 53.1475 220.31 39.0575 171.77C11.6875 77.4399 104.038 1.01986 191.128 49.9099C204.688 57.5199 225.968 74.6699 242.108 89.5799C242.308 89.7599 242.508 89.9499 242.708 90.1399C255.028 101.57 266.218 113.35 273.478 122.84C274.258 123.86 274.278 124.11 274.978 125.87H237.448C237.658 127.4 240.388 145.52 252.638 159.11H320.808C324.188 159.11 332.388 149.08 332.388 145.51V79.8499C320.308 68.3999 304.148 64.8599 299.468 64.0399H299.488Z" fill="#064771"/>
</svg>
